<?xml version="1.0" standalone="no"?>
<!DOCTYPE svg PUBLIC "-//W3C//DTD SVG 20010904//EN"
 "http://www.w3.org/TR/2001/REC-SVG-20010904/DTD/svg10.dtd">
<svg version="1.0" xmlns="http://www.w3.org/2000/svg"
 width="512.000000pt" height="512.000000pt" viewBox="0 0 512.000000 512.000000"
 preserveAspectRatio="xMidYMid meet">
<metadata>
Created by potrace 1.14, written by Peter Selinger 2001-2017
</metadata>
<g transform="translate(0.000000,512.000000) scale(0.100000,-0.100000)"
fill="#000000" stroke="none">
<path d="M3440 4800 l0 -80 640 0 640 0 0 80 0 80 -640 0 -640 0 0 -80z"/>
<path d="M3446 4528 c16 -119 52 -219 118 -335 21 -38 108 -137 151 -172 l40
-33 8 47 c14 86 75 158 162 192 47 18 262 16 318 -3 70 -24 132 -97 149 -176
l14 -61 50 44 c124 108 229 295 249 445 4 27 9 57 12 67 4 16 -31 17 -635 17
l-640 0 4 -32z"/>
<path d="M3970 4073 c-8 -3 -23 -15 -32 -27 -16 -20 -18 -85 -18 -953 l0 -933
160 0 160 0 0 925 c0 1001 1 974 -52 989 -28 7 -197 7 -218 -1z"/>
<path d="M1373 3419 c-37 -57 -70 -106 -73 -109 -36 -36 -121 -217 -144 -309
-26 -100 -28 -114 -31 -244 -2 -113 3 -169 21 -229 3 -12 -17 -4 -73 28 -122
70 -162 80 -568 138 -16 3 -52 7 -80 11 -27 3 -63 9 -79 12 l-29 5 6 -93 c5
-102 24 -188 58 -265 92 -208 286 -371 506 -423 72 -17 97 -19 296 -20 l177
-1 0 -365 0 -364 43 -12 c23 -6 59 -19 80 -29 l37 -18 0 314 0 314 178 1 c174
0 205 2 269 14 18 3 35 6 38 6 12 -1 124 45 168 68 77 41 170 120 222 186 106
136 159 280 164 447 2 70 1 77 -16 74 -10 -2 -43 -6 -73 -10 -55 -7 -97 -13
-147 -20 -16 -2 -50 -7 -78 -11 -27 -4 -61 -8 -75 -10 -14 -3 -43 -7 -65 -10
-180 -28 -308 -85 -427 -193 -21 -19 -38 -30 -38 -25 0 5 4 13 9 18 15 15 69
155 81 210 7 28 14 59 17 70 2 11 6 74 8 140 3 110 0 144 -31 293 -17 81 -122
283 -205 393 -14 19 -37 54 -51 78 l-26 44 -69 -104z"/>
<path d="M3921 1891 c1 -92 14 -209 33 -286 12 -52 70 -197 88 -220 35 -45 70
-28 103 50 63 148 85 252 92 428 l6 137 -162 0 -162 0 2 -109z"/>
<path d="M3280 1356 l0 -484 35 -12 c20 -6 77 -39 128 -72 l92 -61 131 -8
c156 -9 203 -26 279 -105 49 -50 51 -51 122 -57 123 -10 168 -47 249 -209 l54
-109 122 3 122 3 58 75 c75 97 142 233 175 357 l27 98 4 533 3 532 -240 0
c-133 0 -241 -1 -242 -2 0 -2 -2 -30 -5 -63 -15 -200 -102 -456 -177 -522 -99
-87 -261 -56 -322 62 -42 82 -103 255 -109 315 -1 8 -6 40 -10 70 -4 30 -9 71
-11 90 -2 19 -4 38 -4 43 -1 4 -109 7 -241 7 l-240 0 0 -484z"/>
<path d="M689 1020 c-20 -10 -60 -45 -88 -77 l-50 -58 44 -3 45 -3 0 -80 0
-79 -121 0 c-66 0 -129 -5 -140 -10 -10 -6 -40 -52 -66 -103 -78 -153 -86
-187 -58 -254 21 -50 42 -72 90 -94 38 -18 99 -19 1303 -19 l1262 0 -64 129
c-90 179 -96 183 -284 195 -115 7 -143 26 -365 245 -109 108 -212 202 -230
210 -74 31 -161 19 -219 -30 l-33 -27 48 -49 c26 -27 47 -52 47 -56 0 -10 -98
-107 -108 -107 -4 0 -59 52 -122 115 -142 143 -189 169 -301 169 -102 0 -160
-29 -259 -128 -41 -42 -79 -76 -83 -76 -10 0 -107 98 -107 108 0 3 17 24 38
46 20 23 33 38 28 34 -4 -4 -20 -2 -34 3 -54 21 -135 20 -173 -1z m711 -324
c37 -20 170 -143 170 -158 0 -10 -99 -108 -110 -108 -4 0 -28 22 -53 49 -77
82 -74 81 -229 81 l-138 0 0 81 0 81 163 -4 c134 -3 168 -7 197 -22z m680 -55
c27 -27 50 -53 50 -57 0 -5 -34 -43 -77 -85 l-76 -76 -57 56 -57 56 76 77 c42
43 79 78 83 78 5 0 30 -22 58 -49z m-1150 -138 c0 -3 -34 -41 -76 -84 l-77
-77 -53 54 c-30 29 -54 57 -54 60 0 4 34 42 76 84 l76 78 54 -54 c30 -29 54
-57 54 -61z"/>
<path d="M2895 707 c-57 -26 -59 -39 -15 -86 26 -27 71 -104 125 -212 l85
-169 270 0 270 0 54 109 c31 61 70 123 90 141 35 34 35 34 14 49 -15 10 -61
17 -147 22 -69 4 -142 12 -161 20 -19 7 -75 40 -125 73 l-90 61 -170 3 c-126
1 -178 -1 -200 -11z"/>
<path d="M3897 389 c-9 -6 -33 -41 -52 -80 l-35 -69 190 0 190 0 -35 70 c-19
38 -44 74 -54 80 -25 13 -181 13 -204 -1z"/>
</g>
</svg>
